<?xml version="1.0" standalone="no"?>
<!DOCTYPE svg PUBLIC "-//W3C//DTD SVG 20010904//EN"
 "http://www.w3.org/TR/2001/REC-SVG-20010904/DTD/svg10.dtd">
<svg version="1.0" xmlns="http://www.w3.org/2000/svg"
 width="580.000000pt" height="580.000000pt" viewBox="0 0 580.000000 580.000000"
 preserveAspectRatio="xMidYMid meet">
<metadata>
Created by potrace 1.11, written by Peter Selinger 2001-2013
</metadata>
<g transform="translate(0.000000,580.000000) scale(0.100000,-0.100000)"
fill="#000000" stroke="none">
<path d="M786 5363 c-4 -4 -39 -8 -79 -9 -91 -2 -86 -1 -82 -21 1 -10 0 -22
-4 -28 -9 -17 -10 -35 0 -35 5 0 4 -11 -1 -25 -6 -15 -6 -27 0 -30 5 -3 6 -13
3 -21 -9 -25 -10 -88 -1 -106 5 -11 5 -18 -2 -18 -11 0 -9 -27 3 -47 4 -6 4
-14 -1 -17 -11 -6 -9 -77 3 -95 5 -9 4 -12 -2 -8 -14 9 -14 -214 1 -232 9 -12
8 -13 -3 -7 -11 7 -13 -1 -8 -42 4 -34 1 -52 -6 -56 -8 -3 -7 -5 2 -5 11 -1
11 -4 1 -16 -7 -8 -9 -15 -4 -15 13 0 11 -213 -1 -222 -6 -5 -4 -8 5 -8 13 0
13 -1 0 -10 -13 -9 -13 -10 0 -10 13 0 13 -1 0 -10 -13 -9 -13 -11 0 -20 13
-9 13 -11 0 -20 -13 -9 -13 -10 0 -10 12 0 13 -2 1 -9 -11 -7 -11 -9 0 -14 11
-4 11 -6 1 -6 -10 -1 -10 -6 -2 -21 6 -11 7 -20 2 -20 -5 0 -7 -12 -5 -27 2
-16 4 -34 4 -40 -1 -63 -5 -83 -14 -83 -8 0 -9 -3 -1 -8 13 -8 28 -45 15 -38
-5 3 -8 -17 -7 -44 2 -30 -2 -50 -8 -50 -6 0 -4 -5 4 -11 12 -8 12 -12 2 -16
-10 -4 -10 -8 -1 -19 9 -11 8 -18 -2 -31 -12 -15 -12 -16 1 -8 13 7 13 6 2 -7
-10 -13 -10 -17 0 -21 11 -4 11 -6 0 -6 -10 -1 -10 -6 -2 -21 6 -12 7 -20 1
-20 -11 0 -9 -19 3 -39 6 -9 5 -12 -2 -7 -14 9 -11 -46 3 -56 6 -5 6 -8 -1 -8
-6 0 -11 -25 -12 -62 0 -35 -2 -81 -3 -103 -2 -22 0 -46 4 -52 4 -6 2 -15 -4
-19 -8 -5 -9 -3 -4 6 5 9 4 11 -4 6 -8 -5 -9 -12 -3 -19 11 -14 10 -66 -1 -84
-5 -8 -3 -13 3 -13 6 0 9 -8 6 -18 -11 -34 -13 -82 -4 -88 5 -3 5 -11 0 -17
-5 -7 -10 -43 -11 -82 -4 -113 -7 -144 -14 -151 -4 -4 -2 -13 4 -21 6 -7 7
-13 2 -13 -11 0 -11 -29 0 -46 3 -6 3 -14 0 -18 -7 -6 -15 -57 -14 -83 1 -7 1
-19 1 -25 1 -7 -2 -26 -6 -42 -4 -17 -3 -27 2 -23 6 3 10 -3 10 -13 0 -10 -4
-16 -8 -14 -5 3 -6 -5 -4 -18 2 -13 -1 -29 -6 -35 -6 -7 -6 -13 -1 -13 5 0 9
-9 10 -20 1 -11 -1 -19 -5 -16 -4 2 -7 -20 -7 -50 0 -30 4 -54 10 -54 5 0 2
-5 -8 -11 -10 -6 -14 -15 -10 -22 11 -18 10 -97 -2 -97 -5 0 -3 -5 5 -10 8 -5
10 -10 5 -10 -6 0 -11 -9 -11 -20 0 -11 5 -20 11 -20 5 0 3 -5 -5 -10 -8 -5
-12 -10 -8 -10 4 0 3 -11 -2 -24 -5 -15 -5 -27 3 -35 8 -8 8 -11 -2 -11 -11 0
-11 -3 0 -17 10 -11 10 -14 2 -9 -7 4 -13 2 -13 -3 0 -6 5 -11 12 -11 9 0 9
-3 0 -12 -16 -16 -15 -31 1 -22 9 6 9 4 1 -7 -6 -8 -11 -33 -10 -56 1 -24 -2
-43 -6 -43 -4 0 -4 -10 1 -22 10 -28 3 -50 -12 -42 -8 5 -8 2 1 -7 15 -16 16
-33 1 -23 -7 4 -7 -1 1 -16 8 -15 8 -20 1 -16 -6 4 -11 2 -11 -3 0 -6 5 -11
11 -11 8 0 7 -5 -1 -15 -7 -9 -10 -18 -6 -22 3 -3 6 0 6 7 0 7 3 10 6 7 4 -4
1 -13 -6 -22 -10 -12 -10 -15 1 -15 11 0 11 -2 -1 -10 -13 -9 -13 -10 0 -10
11 -1 10 -4 -4 -15 -11 -8 -14 -15 -8 -15 7 0 12 -5 12 -11 0 -5 -6 -7 -12 -3
-10 5 -10 4 -1 -6 9 -9 9 -19 2 -33 -8 -14 -8 -18 0 -12 8 5 10 -2 5 -22 -4
-15 -8 -30 -10 -32 -2 -2 1 -13 7 -24 7 -13 7 -17 1 -13 -6 3 -13 2 -17 -4 -3
-5 -1 -10 5 -10 8 0 9 -7 5 -17 -12 -31 -14 -54 -4 -48 5 4 9 2 9 -4 0 -5 -5
-13 -11 -17 -8 -4 -7 -9 2 -15 10 -6 11 -9 2 -9 -7 0 -13 -7 -13 -16 0 -9 5
-12 13 -8 8 5 7 2 -2 -10 -10 -12 -11 -20 -4 -27 8 -8 7 -19 -3 -37 -9 -19
-10 -30 -2 -39 8 -9 7 -13 -2 -13 -10 0 -10 -3 -1 -14 9 -11 9 -16 0 -22 -8
-5 -9 -3 -4 6 5 9 4 11 -4 6 -8 -6 -9 -12 -2 -20 7 -9 7 -17 -2 -26 -10 -10
-8 -12 7 -6 16 5 17 4 6 -9 -7 -9 -10 -18 -7 -22 4 -3 2 -12 -4 -20 -6 -7 -7
-13 -2 -13 5 0 10 -7 10 -15 0 -10 -6 -14 -16 -10 -14 4 -14 3 1 -8 11 -9 13
-18 7 -30 -12 -20 -2 -63 14 -66 7 -1 26 -3 43 -4 18 -1 39 -9 48 -16 14 -12
16 -12 9 5 -6 17 -5 18 11 5 17 -14 17 -15 0 -28 -10 -7 -13 -13 -8 -13 6 0
15 5 22 12 9 9 12 9 13 -2 1 -8 1 -19 -1 -25 -1 -5 4 -4 11 3 17 16 26 15 33
-4 4 -11 2 -15 -7 -11 -8 3 -13 -3 -13 -18 0 -13 4 -21 8 -19 5 3 6 10 3 15
-4 5 -2 9 3 9 12 0 23 -27 14 -33 -4 -2 -1 -2 7 0 9 2 11 -2 7 -13 -4 -11 -2
-15 8 -11 11 4 13 1 9 -11 -5 -14 -3 -15 8 -5 7 7 18 13 23 13 6 0 0 -7 -12
-16 -19 -13 -21 -18 -10 -32 8 -10 9 -13 1 -9 -6 4 -15 2 -19 -4 -4 -8 -3 -9
4 -5 7 4 12 2 12 -3 0 -6 -8 -11 -17 -12 -16 0 -16 -1 -2 -7 9 -4 15 -15 13
-24 -1 -10 3 -21 8 -25 6 -3 8 -1 5 4 -4 6 4 11 19 11 l25 0 -23 -26 c-13 -15
-16 -21 -6 -14 9 7 18 9 20 5 3 -4 3 -3 2 4 -2 6 4 17 13 25 14 11 15 10 9
-12 -5 -18 -5 -21 3 -10 5 8 13 11 17 7 4 -4 2 -13 -4 -19 -7 -7 -12 -19 -12
-28 0 -8 8 0 16 17 12 24 22 32 38 29 11 -2 32 3 45 11 13 8 20 10 17 4 -7
-11 5 -15 32 -12 6 1 12 -2 12 -6 0 -5 -13 -9 -30 -9 -19 -1 -28 2 -23 10 3 6
2 8 -2 3 -13 -11 -16 -45 -5 -52 6 -3 7 1 4 9 -3 9 -1 16 5 16 10 0 15 -14 12
-33 -1 -5 3 -6 9 -2 5 3 20 1 32 -5 19 -9 21 -9 8 2 -21 18 -23 37 -5 44 8 3
12 10 9 15 -3 5 0 9 5 9 6 0 11 -6 11 -12 0 -10 3 -9 9 1 7 11 10 11 15 0 3
-8 4 -3 2 10 -4 17 -2 21 6 13 13 -13 2 -46 -12 -37 -13 8 -13 -5 0 -25 8 -13
10 -12 10 3 0 9 5 17 10 17 12 0 13 -6 1 -29 -8 -14 -5 -17 14 -17 13 0 21 4
19 8 -3 5 -10 6 -15 3 -5 -4 -9 -2 -9 4 0 20 20 21 32 1 7 -11 17 -20 22 -20
4 0 3 6 -3 13 -12 16 -5 27 18 27 14 0 14 -2 1 -10 -13 -8 -12 -10 4 -10 12 0
16 5 13 14 -3 8 1 17 9 20 9 4 12 11 8 18 -5 8 -1 8 10 -1 15 -13 19 -13 26
-1 5 8 6 18 3 24 -3 5 -1 6 5 2 9 -5 8 -15 -3 -35 -8 -16 -11 -32 -7 -36 4 -5
-1 -5 -10 -2 -22 8 -34 -11 -19 -26 9 -9 10 -7 5 8 -7 18 -6 18 9 6 10 -7 17
-9 17 -3 0 11 39 10 57 -1 6 -4 10 3 9 16 -3 28 22 79 34 72 6 -4 10 -8 10
-11 0 -3 -4 -3 -9 0 -10 6 -25 -24 -16 -32 3 -3 5 -2 5 3 0 4 7 2 15 -5 12
-10 19 -10 27 -2 19 19 29 14 24 -11 -2 -13 0 -30 5 -38 7 -11 9 -11 9 -1 0 7
4 11 10 7 5 -3 8 -11 6 -18 -1 -7 -1 -9 1 -4 3 4 9 5 14 2 5 -4 6 1 3 9 -3 9
-10 16 -16 16 -5 0 -6 5 -2 12 5 8 13 4 26 -11 10 -13 19 -22 19 -20 6 17 5
49 -2 49 -5 0 -9 -5 -9 -11 0 -8 -4 -8 -12 -2 -7 6 -21 9 -31 8 -15 -3 -16 -1
-5 12 7 9 11 18 10 20 -2 3 0 8 4 11 4 4 4 2 1 -4 -4 -7 0 -17 8 -24 12 -10
18 -10 30 0 10 9 15 9 15 1 0 -6 4 -11 10 -11 5 0 7 6 4 14 -3 8 -1 17 5 21 7
4 8 0 4 -11 -5 -13 -3 -15 8 -9 12 7 12 6 1 -7 -8 -10 -9 -19 -4 -22 6 -3 13
1 16 10 3 8 11 12 17 8 9 -5 7 -11 -6 -20 -10 -7 -22 -11 -26 -8 -4 2 -13 -5
-19 -16 -7 -13 -7 -20 0 -20 5 0 10 7 10 16 0 8 5 12 10 9 6 -4 8 -10 6 -14
-8 -12 42 -7 54 5 9 9 9 14 1 19 -6 3 -10 1 -9 -6 2 -6 -2 -13 -8 -16 -6 -2
-11 3 -11 12 0 14 5 16 24 14 4 0 10 9 14 19 6 15 14 19 29 15 16 -4 19 -2 14
13 -5 15 -4 16 4 4 14 -19 4 -33 -19 -27 -11 3 -19 0 -20 -6 0 -7 -2 -22 -5
-35 -2 -12 1 -22 7 -22 5 0 7 5 4 10 -3 6 0 10 9 10 8 0 16 -6 19 -12 2 -8 8
-9 13 -4 5 5 4 11 -4 13 -6 3 -10 9 -7 14 4 5 -1 6 -9 3 -9 -3 -16 -1 -16 4 0
6 12 9 26 6 14 -3 23 -1 20 4 -2 4 0 14 5 22 8 12 9 11 7 -4 -2 -10 3 -21 10
-23 8 -3 10 1 6 14 -4 12 0 9 12 -7 10 -14 17 -32 16 -42 -2 -9 2 -19 9 -23 8
-5 9 -1 4 16 l-7 24 23 -21 c32 -28 54 -35 69 -21 10 9 12 8 7 -5 -4 -10 -2
-18 3 -18 12 0 13 23 2 34 -4 4 -7 12 -7 18 0 6 -7 12 -15 14 -8 1 -24 6 -34
10 -14 5 -17 4 -12 -5 11 -17 -16 -9 -31 9 -7 8 -13 19 -13 24 0 6 7 1 15 -10
13 -16 16 -17 25 -4 9 13 11 13 20 0 9 -13 13 -12 27 5 12 16 14 16 10 3 -6
-17 7 -35 16 -21 2 5 2 2 1 -5 -4 -16 13 -16 19 1 4 9 6 9 6 0 1 -7 6 -13 12
-13 5 0 7 5 4 10 -3 6 -1 10 5 10 6 0 9 4 6 8 -2 4 5 9 17 9 20 2 20 1 5 -8
-10 -6 -18 -15 -18 -21 0 -7 5 -6 15 2 8 7 15 9 16 4 1 -5 5 2 9 16 8 24 8 24
9 3 1 -13 6 -23 12 -23 6 0 8 8 5 18 -6 16 -5 16 7 0 9 -11 18 -14 28 -7 8 5
19 9 24 8 6 0 0 -5 -12 -12 -12 -7 -22 -15 -22 -19 -1 -7 -7 -10 -13 -7 -9 5
-68 4 -68 0 0 -3 12 -14 26 -24 23 -17 27 -18 43 -3 22 20 38 21 21 1 -7 -8
-11 -15 -9 -16 34 -7 38 -6 32 4 -14 23 -11 39 10 60 15 15 19 16 14 4 -3 -9
-1 -19 5 -23 7 -5 5 -11 -6 -20 -11 -8 -13 -14 -7 -19 6 -3 11 -1 11 5 0 6 4
9 9 5 5 -3 12 -1 16 5 3 5 15 10 26 10 14 0 18 4 13 13 -5 8 -2 8 9 -2 14 -11
20 -11 32 -1 12 10 13 16 3 28 -10 11 -6 11 15 -3 l28 -18 -5 27 c-3 14 -1 24
3 21 5 -2 8 -15 7 -27 -1 -16 -7 -22 -19 -20 -29 5 -19 -7 19 -23 36 -15 36
-16 19 -35 -9 -10 -15 -25 -12 -32 3 -8 6 -6 6 5 1 11 6 15 13 11 7 -5 8 -3 3
6 -6 10 -4 12 8 7 12 -4 14 -2 10 11 -6 14 -4 15 9 4 11 -9 18 -10 23 -2 3 5
11 10 18 10 8 0 8 -3 -1 -12 -7 -7 -12 -17 -12 -23 0 -5 9 1 20 15 21 27 26
21 10 -13 -9 -20 -9 -20 2 -3 35 51 45 59 53 46 6 -9 4 -11 -5 -5 -9 6 -11 4
-5 -5 6 -9 4 -11 -6 -5 -8 5 -11 4 -6 0 4 -5 0 -19 -8 -32 -9 -13 -12 -23 -7
-23 10 0 47 61 47 77 0 7 5 13 10 12 6 0 9 -8 7 -17 -2 -12 3 -10 19 8 16 18
21 20 16 6 -5 -13 -3 -17 7 -13 8 3 19 0 25 -7 8 -10 1 -12 -34 -11 -39 2 -43
0 -32 -13 10 -13 9 -15 -5 -10 -9 4 -18 1 -21 -6 -4 -9 2 -11 20 -8 18 3 24 1
19 -7 -4 -6 -2 -11 4 -11 6 0 9 8 6 18 -5 15 -2 18 16 16 34 -4 34 -4 18 -14
-8 -5 -11 -12 -7 -17 5 -4 12 -1 17 7 8 13 13 13 31 2 13 -8 18 -9 14 -2 -4 6
-16 15 -28 19 -12 4 -16 10 -10 14 6 4 21 -2 35 -12 23 -18 24 -19 24 -1 0 11
-2 17 -5 15 -2 -3 -10 0 -18 6 -7 6 -13 8 -13 3 0 -10 -29 28 -30 39 0 4 9 -2
20 -13 12 -12 25 -18 30 -15 5 3 12 0 15 -5 5 -7 11 -5 19 6 11 14 15 15 34 3
26 -17 29 -28 5 -24 -10 1 -17 8 -16 14 5 18 -11 13 -24 -9 -8 -12 -9 -21 -3
-25 6 -4 8 -11 5 -16 -4 -5 -1 -9 4 -9 14 0 14 13 0 27 -8 8 1 10 35 8 26 -2
49 1 52 7 5 7 2 9 -8 6 -8 -4 -15 -1 -15 7 0 7 8 10 19 7 21 -5 21 -7 8 -32
-6 -12 -16 -17 -26 -13 -14 5 -13 2 2 -15 22 -27 19 -27 44 0 22 24 26 18 9
-15 -9 -18 -9 -20 1 -10 16 15 21 61 8 70 -6 3 -8 2 -5 -4 3 -5 0 -10 -7 -10
-8 0 -12 6 -9 14 6 16 15 17 30 2 8 -8 15 -6 25 10 7 11 17 21 22 21 5 0 1 -9
-9 -20 -18 -20 -17 -20 11 -20 20 0 25 3 15 9 -8 5 -9 11 -3 15 5 3 13 -1 16
-10 6 -15 8 -15 25 0 12 11 21 13 25 7 4 -6 13 -8 20 -5 7 3 16 -2 19 -10 4
-9 11 -16 17 -16 6 0 8 4 5 10 -4 6 1 7 11 3 10 -4 15 -2 11 3 -3 6 4 11 16
11 20 2 20 1 5 -8 -10 -6 -18 -15 -18 -21 0 -7 6 -6 15 2 20 17 30 7 16 -17
-8 -14 -10 -14 -11 -3 0 13 -1 13 -10 0 -8 -12 -10 -12 -10 -1 0 27 -13 2 -16
-31 -1 -18 0 -28 2 -21 3 7 12 9 20 6 8 -3 26 5 40 18 24 22 26 22 22 4 -2
-12 3 -21 15 -23 9 -2 17 1 17 7 0 6 -8 8 -17 5 -17 -5 -17 -5 0 9 21 17 22
28 2 21 -8 -4 -15 -1 -15 6 0 7 -9 2 -20 -11 -10 -13 -19 -19 -20 -12 0 6 7
18 15 27 9 8 14 19 13 23 -2 4 1 8 7 8 5 0 9 -5 7 -11 -1 -6 12 -10 28 -10 17
0 29 4 27 10 -2 6 -13 10 -23 9 -10 -1 -13 0 -6 3 6 3 9 11 6 16 -16 25 17 -5
37 -35 13 -18 19 -29 14 -25 -4 4 -15 2 -23 -5 -11 -8 -14 -8 -9 0 4 6 4 14
-1 17 -4 2 -8 -3 -9 -13 -1 -9 8 -23 19 -30 11 -7 17 -8 14 -2 -4 6 2 16 13
23 19 12 19 12 0 39 -12 18 -16 30 -9 34 6 4 10 3 9 -2 -4 -20 2 -24 19 -12
14 11 15 11 5 -1 -19 -21 -15 -32 6 -18 11 7 17 17 14 23 -4 5 -3 7 2 3 4 -4
15 -2 24 5 14 11 14 10 2 -6 -12 -15 -9 -21 10 -19 4 1 5 -8 2 -18 -3 -11 -8
-20 -12 -21 -3 0 -14 -2 -24 -4 -15 -3 -16 -1 -6 11 6 7 15 11 20 8 5 -3 6 2
3 10 -4 12 -10 13 -23 4 -23 -14 -22 -34 2 -55 13 -11 17 -12 12 -4 -6 11 -4
13 8 8 8 -3 21 1 27 9 7 8 17 14 22 14 6 0 4 -8 -3 -17 -10 -11 -10 -14 -1 -9
7 4 12 2 12 -5 0 -9 3 -9 14 0 10 9 16 9 21 1 8 -12 30 -8 31 6 0 5 4 17 9 27
6 15 10 16 16 5 7 -10 9 -9 9 3 0 23 22 29 44 13 16 -11 17 -16 6 -29 -7 -8
-18 -15 -24 -15 -6 0 -4 5 4 10 8 5 10 10 4 10 -5 0 -16 -6 -23 -13 -8 -6 -11
-7 -8 -1 3 6 0 11 -8 11 -8 0 -15 -4 -15 -9 0 -4 6 -8 12 -8 7 0 2 -7 -10 -16
-12 -8 -22 -21 -21 -27 0 -9 2 -8 6 1 2 6 10 9 15 6 7 -5 8 -2 3 6 -6 10 -4
12 9 7 9 -4 14 -3 11 2 -3 5 -1 12 5 16 5 3 10 1 10 -6 0 -8 4 -8 15 1 9 7 19
9 23 5 4 -4 1 -10 -6 -12 -7 -3 -18 -11 -26 -18 -7 -8 -16 -12 -18 -10 -3 3
-5 -2 -5 -10 0 -13 4 -12 21 4 12 10 30 23 41 28 22 12 48 6 39 -8 -3 -5 -1
-9 4 -9 15 0 21 25 11 41 -7 12 -9 12 -9 -1 0 -12 -2 -12 -9 -1 -6 9 -11 10
-15 2 -4 -6 -12 -9 -17 -5 -6 4 -6 11 2 20 8 10 8 18 1 27 -8 9 -8 17 0 27 8
12 9 12 4 -2 -6 -19 25 -43 39 -30 5 4 5 1 1 -5 -4 -7 -3 -13 2 -13 16 0 22
13 11 26 -7 8 -6 14 2 20 7 4 9 3 5 -4 -8 -13 28 -35 39 -24 5 4 5 2 1 -5 -10
-18 36 -12 52 7 10 13 11 13 6 -3 -6 -17 -5 -18 14 -6 11 7 18 18 15 24 -4 5
-2 6 2 2 5 -4 10 -13 11 -20 1 -7 3 -16 4 -22 1 -5 2 -16 1 -24 -1 -11 -4 -11
-16 -1 -12 10 -13 15 -3 28 11 13 10 14 -2 10 -8 -3 -14 -12 -14 -21 1 -13 -2
-14 -16 -7 -9 5 -20 6 -24 3 -3 -3 -6 -1 -6 6 0 7 -5 9 -10 6 -6 -4 -7 -11 -4
-17 4 -6 0 -6 -13 1 -11 6 -24 7 -28 3 -5 -4 -5 -1 -1 6 4 7 13 9 19 6 8 -5 8
-3 0 7 -19 19 -41 -4 -24 -25 8 -10 9 -16 1 -21 -5 -3 -10 -12 -10 -18 0 -7 4
-6 10 3 5 8 10 11 10 7 0 -5 16 1 35 13 19 12 35 17 35 11 0 -6 -3 -11 -7 -11
-5 0 -19 -9 -32 -19 -18 -14 -21 -20 -11 -26 8 -5 11 -4 7 2 -4 6 6 16 21 23
37 18 54 21 50 8 -2 -6 -12 -12 -22 -14 -10 -1 -21 -5 -24 -8 -13 -14 37 1 62
18 28 18 28 18 21 -6 -5 -19 -4 -20 5 -8 10 12 11 11 7 -8 -3 -13 -1 -20 5
-16 5 3 7 17 4 30 -8 29 5 31 22 4 7 -12 17 -18 21 -15 5 3 11 2 14 -2 2 -5 2
-2 0 6 -2 8 2 11 11 8 11 -4 13 -1 9 11 -6 15 -5 15 10 3 9 -7 14 -17 11 -22
-3 -5 0 -9 5 -9 6 0 11 5 11 10 0 6 12 2 27 -7 15 -10 24 -13 20 -6 -4 6 -3
14 3 18 5 3 11 1 11 -4 1 -6 2 -15 3 -20 0 -5 5 -13 10 -18 6 -5 6 -2 1 6 -6
11 -4 13 11 8 18 -7 18 -6 2 7 -22 16 -23 26 -3 26 8 0 15 -5 15 -11 0 -6 9
-8 23 -4 21 6 21 6 3 -9 -11 -9 -15 -16 -9 -16 14 0 35 25 27 33 -4 3 3 5 14
4 12 0 23 -10 26 -21 3 -11 8 -17 11 -14 4 3 2 15 -4 26 -9 17 -8 22 9 27 11
3 20 11 20 16 0 15 -12 11 -37 -13 -13 -12 -23 -16 -23 -9 0 7 -5 9 -11 6 -6
-4 -13 2 -16 14 -3 12 -9 21 -14 21 -5 0 -6 -8 -3 -17 4 -11 2 -14 -3 -8 -11
13 -33 17 -33 6 0 -5 3 -11 8 -14 4 -2 0 -2 -8 1 -8 2 -21 5 -27 5 -7 0 -13 4
-13 9 0 5 7 8 16 6 10 -2 19 3 22 11 3 9 0 11 -9 6 -8 -5 -11 -4 -6 1 5 5 12
9 15 9 4 0 14 4 22 9 12 7 13 6 3 -5 -20 -20 -15 -31 6 -17 11 7 18 15 15 19
-2 4 0 10 5 13 4 3 8 -2 8 -12 0 -47 3 -57 12 -42 6 8 7 19 3 25 -3 5 1 4 10
-3 11 -9 18 -10 23 -2 4 7 12 7 24 0 10 -5 21 -6 25 -2 4 3 4 -1 0 -11 -5 -13
-2 -16 10 -11 9 3 14 9 11 13 -2 4 6 6 18 5 12 -1 26 -3 31 -3 4 -1 6 -7 3
-15 -3 -8 1 -17 9 -20 24 -9 27 -7 14 8 -9 11 -9 19 0 33 10 16 10 15 5 -5 -6
-22 -5 -22 15 -10 18 10 24 10 27 0 3 -6 9 -9 15 -6 5 3 4 -3 -4 -15 -14 -24
-38 -36 -38 -19 0 7 -4 7 -14 -1 -10 -9 -16 -8 -26 4 -7 8 -17 12 -24 8 -7 -4
-6 -1 1 9 7 8 10 18 6 21 -3 4 -12 -2 -20 -13 -8 -11 -20 -20 -26 -20 -7 0 -6
4 3 10 8 5 10 10 4 10 -5 0 -16 -6 -23 -13 -11 -10 -12 -9 -6 3 8 13 7 13 -8
1 -16 -13 -16 -15 -1 -32 10 -11 22 -19 28 -19 6 0 5 4 -3 9 -11 7 -10 11 7
20 27 14 39 14 24 -1 -7 -7 -12 -17 -12 -23 0 -5 9 1 19 14 l18 24 17 -24 c9
-13 16 -18 16 -11 0 6 5 12 11 12 5 0 7 -5 3 -11 -3 -6 5 -4 18 5 14 9 28 13
32 9 3 -4 -2 -12 -13 -18 -15 -7 -18 -14 -11 -25 8 -12 10 -12 10 -1 0 22 32
41 52 30 10 -5 18 -6 19 -2 0 4 4 -1 9 -12 8 -18 9 -18 9 -2 1 12 6 16 14 11
6 -4 9 -4 5 1 -4 4 -3 14 3 22 9 9 8 13 0 13 -6 0 -11 -5 -11 -12 0 -6 -7 -3
-15 8 -11 14 -14 15 -9 3 3 -10 0 -20 -7 -25 -8 -5 -11 -2 -7 8 4 8 0 15 -8
15 -7 0 -11 -3 -9 -7 2 -4 -2 -7 -10 -7 -8 0 -11 5 -8 10 4 6 1 7 -7 2 -7 -5
-5 4 6 18 20 27 34 34 34 17 0 -5 -5 -10 -11 -10 -5 0 -7 -5 -4 -10 5 -8 11
-8 19 -1 7 6 16 8 19 4 4 -3 7 -1 7 5 0 7 -5 12 -12 12 -6 0 -8 3 -4 7 4 5 14
0 21 -10 13 -18 14 -18 24 0 8 14 9 9 6 -23 -2 -22 1 -47 6 -55 7 -11 9 -10 9
5 0 11 3 16 7 13 3 -4 12 -2 20 4 16 14 17 -3 1 -19 -9 -9 -9 -12 1 -12 7 0
10 -3 8 -7 -3 -5 5 -8 18 -8 13 0 21 3 18 8 -2 4 -11 7 -19 7 -8 0 -14 4 -14
9 0 10 26 9 36 -2 4 -4 13 -2 21 5 7 6 17 8 20 4 4 -4 1 -12 -7 -17 -13 -9
-12 -10 2 -6 9 3 18 2 20 -2 2 -4 14 6 27 23 14 17 21 28 16 23 -5 -4 -16 0
-26 9 -11 10 -23 13 -31 8 -21 -13 -38 -13 -38 -1 0 8 -3 8 -8 2 -9 -12 -52
-16 -52 -4 0 9 16 13 34 10 4 -1 15 4 24 11 9 8 13 8 9 2 -4 -7 0 -14 8 -18 8
-3 19 3 24 12 9 15 12 15 27 -7 l17 -24 18 24 c10 13 19 19 19 14 0 -6 -5 -16
-11 -22 -9 -9 -7 -12 10 -10 13 1 20 6 16 14 -3 10 0 11 14 4 10 -6 21 -8 23
-5 3 3 8 -2 12 -11 5 -13 2 -14 -15 -4 -17 9 -20 8 -14 -2 6 -8 4 -10 -5 -4
-9 6 -11 4 -5 -5 6 -9 4 -11 -5 -5 -9 6 -11 4 -5 -6 7 -11 6 -12 -6 -2 -11 9
-19 6 -39 -14 l-25 -26 30 15 c17 8 36 13 43 11 6 -3 12 0 12 7 0 6 5 8 12 4
7 -4 8 -3 4 4 -9 15 -1 15 24 2 16 -9 18 -7 15 11 -2 12 -9 27 -16 35 -8 10
-8 14 0 14 6 0 11 -5 11 -12 0 -6 3 -8 7 -5 3 4 12 -1 19 -11 13 -16 13 -16
14 1 0 9 4 17 10 17 5 0 7 -8 4 -17 -4 -14 -1 -12 14 5 13 14 22 18 24 10 3
-8 12 -4 26 10 12 12 22 18 22 14 0 -4 -5 -13 -10 -18 -8 -8 -6 -15 6 -25 16
-12 17 -12 12 2 -4 11 3 23 21 37 20 15 28 16 28 7 0 -8 -4 -12 -9 -9 -4 3 -8
0 -8 -5 0 -6 -7 -11 -15 -11 -9 0 -12 -6 -8 -16 3 -10 13 -14 25 -11 16 4 17
3 7 -9 -6 -7 -15 -12 -19 -9 -5 3 -11 1 -15 -5 -4 -6 -13 -7 -23 -2 -9 5 -24
8 -32 7 -8 -1 -22 4 -30 9 -8 6 -5 -2 6 -19 12 -16 24 -37 27 -45 4 -12 6 -12
6 2 1 9 -3 20 -9 23 -5 3 -10 12 -10 18 1 7 9 2 19 -10 13 -16 21 -19 29 -11
12 12 46 -8 37 -21 -2 -4 2 -8 10 -8 8 0 13 5 12 11 -1 5 5 11 13 11 23 2 32
-6 21 -19 -7 -8 -5 -12 7 -12 10 0 18 8 18 17 0 10 -4 15 -8 13 -4 -3 -8 0 -8
6 0 7 -7 9 -16 6 -9 -3 -12 -2 -9 5 4 5 15 7 26 4 11 -4 19 -2 19 5 0 6 4 9
10 5 5 -3 8 -11 6 -18 -1 -7 -1 -9 1 -4 3 4 9 5 13 2 5 -3 7 4 5 16 -5 23 -15
39 -15 22 0 -5 -16 -9 -34 -8 -21 1 -32 -3 -29 -8 4 -6 1 -7 -7 -2 -8 5 -11 4
-7 -2 4 -6 0 -17 -9 -24 -14 -11 -15 -10 -12 7 4 25 39 53 57 46 10 -4 12 -1
6 9 -6 11 -5 12 6 1 19 -17 34 -15 19 3 -7 9 -10 18 -7 21 3 3 16 -14 30 -38
50 -88 49 -86 41 -58 -6 23 -6 24 11 10 11 -8 16 -10 12 -4 -9 16 20 26 30 11
8 -12 46 -20 39 -8 -3 4 -1 13 5 21 7 13 9 12 10 -2 3 -32 4 -36 13 -45 5 -4
6 -3 3 3 -6 11 19 29 36 26 4 -1 7 3 7 9 0 5 5 7 12 3 7 -4 8 -3 4 4 -5 9 -13
9 -29 1 -20 -9 -20 -9 -5 4 10 8 15 17 11 20 -3 4 -12 -1 -20 -11 -9 -12 -13
-13 -11 -3 2 8 14 27 27 43 23 26 26 27 42 12 10 -9 23 -13 29 -9 6 4 17 -1
25 -11 12 -17 13 -16 12 15 -1 23 3 36 13 38 12 4 12 3 1 -5 -9 -6 -10 -12 -3
-16 17 -10 47 41 33 57 -8 10 -7 14 4 14 8 0 12 -4 9 -9 -3 -4 0 -8 6 -8 6 0
9 -4 5 -9 -3 -6 4 -9 15 -8 11 1 20 7 20 14 0 7 -5 12 -11 10 -6 -1 -14 5 -16
13 -3 9 -1 11 4 5 13 -16 33 -16 33 1 0 9 5 12 13 8 9 -5 9 -4 0 6 -6 7 -9 20
-5 29 5 13 3 14 -9 4 -15 -12 -43 -12 -55 0 -4 3 5 4 19 2 27 -5 56 18 37 30
-5 3 -10 1 -10 -4 0 -6 -5 -11 -10 -11 -6 0 -3 11 6 25 9 14 13 25 9 25 -4 0
-1 8 6 17 12 15 12 16 -6 10 -19 -7 -19 -6 -2 7 22 17 22 27 0 19 -13 -4 -12
-1 4 11 12 9 30 13 40 10 15 -5 16 -4 3 5 -12 9 -13 13 -2 20 11 6 10 10 -5
15 -17 7 -17 8 -1 20 16 12 16 14 -6 24 -18 8 -28 7 -44 -4 -14 -9 -23 -11
-27 -4 -4 6 -3 9 2 8 13 -4 53 22 53 34 0 6 -6 5 -17 -3 -14 -12 -14 -10 1 14
14 21 15 27 5 27 -11 0 -11 2 1 10 13 8 12 11 -5 25 -17 13 -17 14 -2 9 22 -8
20 15 -3 33 -13 12 -13 12 0 8 11 -4 15 2 17 21 1 19 -2 23 -10 15 -6 -6 -15
-11 -19 -11 -4 0 1 9 13 21 22 22 19 38 -4 23 -7 -5 -4 -1 7 9 19 17 19 18 0
32 -17 13 -17 14 -1 9 19 -7 21 15 2 28 -6 5 -6 11 2 19 10 10 9 15 -5 26 -14
11 -14 12 -1 8 10 -4 16 0 16 10 0 8 -5 15 -10 15 -6 0 -8 2 -5 5 3 3 13 2 22
-1 14 -5 15 -9 4 -16 -10 -8 -10 -9 2 -5 8 2 14 10 13 16 -2 6 3 11 10 11 8 0
7 4 -3 10 -13 9 -13 11 0 20 11 7 11 10 2 10 -7 0 -11 4 -7 10 3 5 12 7 19 4
8 -3 17 -1 21 5 3 6 0 9 -7 6 -7 -3 -28 9 -47 25 -18 17 -30 30 -24 30 5 0 15
-6 22 -13 11 -10 12 -8 3 9 -6 12 -9 24 -5 27 3 4 -1 9 -10 13 -14 5 -14 8 -2
20 19 20 22 18 21 -18 -1 -20 4 -33 14 -35 9 -3 11 -1 5 4 -17 14 -17 36 -1
30 9 -4 18 -2 21 4 4 5 3 9 -2 8 -4 -1 -14 -1 -22 0 -11 1 -11 4 0 18 8 10 9
14 2 10 -8 -5 -11 0 -10 13 1 11 6 20 12 20 5 0 3 5 -5 10 -21 13 -39 12 -20
-1 12 -9 12 -10 -3 -5 -10 3 -22 6 -25 6 -4 0 0 5 8 10 13 9 13 11 0 20 -8 5
-10 10 -4 10 5 0 14 -4 20 -10 6 -6 15 -6 24 0 9 6 10 10 3 10 -6 0 -19 7 -27
16 -9 8 -16 11 -16 5 0 -6 -5 -11 -11 -11 -8 0 -8 4 1 15 10 12 16 12 34 3 24
-14 51 -20 41 -10 -4 4 -11 7 -17 7 -6 0 -13 10 -15 23 -1 13 1 21 5 18 5 -3
9 1 9 9 0 10 -4 12 -12 5 -7 -5 -15 -7 -18 -3 -11 10 -8 -12 3 -25 7 -8 7 -9
-1 -3 -6 5 -19 7 -28 4 -12 -4 -13 -3 -3 5 20 14 21 45 3 60 -14 10 -13 11 4
5 18 -6 19 -5 5 13 -14 17 -13 18 1 7 9 -7 20 -9 25 -5 4 4 2 -1 -5 -10 -11
-15 -11 -18 0 -18 11 0 11 -3 -1 -11 -13 -9 -13 -10 0 -6 8 2 15 12 15 23 0
10 6 18 13 17 6 -2 12 2 12 8 0 6 -6 9 -12 6 -7 -2 -30 5 -50 16 -43 22 -50
31 -13 17 29 -11 33 -3 8 16 -14 11 -15 13 -2 9 10 -4 16 0 16 10 0 8 -5 15
-10 15 -5 0 -7 7 -3 15 3 8 0 15 -6 15 -6 0 -8 3 -5 6 9 9 38 -16 31 -27 -3
-5 1 -9 8 -9 10 0 9 -3 -2 -11 -13 -9 -13 -10 0 -6 8 2 15 12 15 23 0 13 6 18
20 16 16 -2 17 -1 5 7 -9 7 -19 6 -27 -1 -15 -12 -17 0 -3 22 6 10 4 20 -7 32
-18 20 -4 25 16 5 11 -9 12 -9 7 0 -4 7 -16 17 -26 23 -16 9 -18 7 -15 -10 2
-11 -1 -20 -7 -20 -5 0 -7 7 -4 16 4 12 2 15 -9 10 -8 -3 -15 -1 -15 4 0 6 6
10 13 10 8 0 14 7 14 15 0 10 -6 14 -16 10 -14 -5 -14 -4 0 7 9 7 16 18 16 23
0 6 -7 16 -16 23 -14 11 -14 12 0 7 10 -4 16 0 16 10 0 10 -6 14 -16 10 -14
-5 -14 -4 0 7 21 17 24 29 7 39 -10 7 -10 9 0 9 7 0 10 5 7 10 -5 8 -12 7 -23
-2 -15 -12 -16 -11 -4 4 8 9 11 22 7 27 -3 7 0 8 10 5 20 -8 16 16 -5 33 -13
11 -12 12 5 6 18 -6 19 -5 5 12 -9 11 -10 16 -3 11 9 -5 12 0 10 16 -1 13 -6
26 -10 29 -5 3 -1 9 8 12 9 4 14 3 11 -1 -3 -5 1 -9 9 -9 11 0 12 4 3 14 -6 7
-8 16 -4 20 3 4 13 -2 22 -13 14 -18 15 -18 4 4 -6 12 -15 22 -21 22 -6 0 -7
6 -3 13 4 7 3 9 -2 4 -5 -5 -9 -14 -9 -20 0 -5 -7 -12 -15 -14 -9 -3 -11 -1
-5 4 16 13 15 45 -1 39 -8 -3 -14 -2 -14 3 0 5 9 11 20 14 13 3 18 1 13 -5 -3
-7 -1 -8 5 -4 6 3 15 -2 21 -11 6 -10 11 -13 11 -7 0 6 -7 17 -15 24 -17 14
-20 40 -5 40 6 0 10 -6 10 -14 0 -8 4 -17 9 -20 5 -4 7 3 4 15 -3 11 -12 23
-19 26 -17 6 -19 24 -3 20 6 -1 13 4 15 11 1 7 0 8 -3 2 -2 -5 -8 -8 -13 -5
-4 2 -15 -4 -25 -15 -10 -12 -13 -20 -7 -20 7 0 12 -4 12 -10 0 -17 -15 -11
-29 13 -7 12 -10 19 -6 15 5 -4 14 -3 22 3 14 12 18 31 5 26 -4 -1 -7 3 -7 8
0 6 4 9 9 7 5 -2 6 4 2 13 -3 9 2 28 11 42 22 33 27 66 11 60 -7 -2 -12 -13
-12 -25 1 -12 -3 -19 -8 -16 -4 3 -7 0 -6 -7 2 -6 -3 -13 -10 -15 -7 -1 -8 0
-2 3 8 3 7 9 -1 19 -7 8 -9 17 -5 21 3 3 6 1 6 -6 0 -7 4 -10 10 -6 5 3 7 11
4 18 -2 7 5 23 16 35 24 26 15 30 -12 5 -18 -16 -18 -16 -12 2 6 14 4 16 -6
10 -9 -5 -11 -4 -6 4 4 6 12 9 17 6 5 -4 9 -1 9 5 0 6 -7 13 -16 17 -11 4 -12
8 -4 13 8 5 9 13 4 21 -5 8 -9 20 -10 27 -2 10 1 11 12 1 17 -14 18 -9 2 28
-6 15 -12 33 -13 38 0 6 -7 9 -14 7 -7 -1 -10 2 -6 8 5 8 11 8 19 1 7 -6 17
-7 22 -3 4 4 2 -1 -5 -10 -8 -11 -9 -18 -3 -18 6 0 13 -8 16 -17 2 -10 3 -2 2
17 -2 24 3 43 18 60 19 23 19 23 1 8 -29 -24 -47 -26 -50 -5 -3 15 -1 16 11 6
16 -14 18 -5 4 21 -6 11 -17 17 -25 14 -8 -4 -15 -2 -15 4 0 12 18 11 39 -2
11 -7 13 -5 8 9 -4 9 -2 24 4 31 8 10 8 18 1 27 -6 6 -10 16 -10 20 0 5 -3 11
-6 15 -10 9 -7 -22 4 -38 10 -15 -4 -40 -23 -40 -6 0 -2 7 9 15 19 14 19 14
-1 15 -11 1 -15 4 -9 6 7 3 10 13 7 24 -3 12 3 22 16 30 12 6 20 19 19 28 -2
11 3 17 14 16 10 -1 15 2 12 7 -3 5 -13 8 -21 7 -9 -2 -18 3 -21 11 -2 8 0 11
5 8 11 -7 12 68 1 79 -4 4 -2 14 5 22 8 10 8 13 1 9 -7 -4 -15 0 -18 9 -8 22
-8 26 4 19 5 -3 7 0 4 8 -3 8 -15 20 -27 26 l-22 11 23 -6 c16 -4 22 -1 22 11
0 10 5 13 12 9 7 -5 8 -3 2 7 -5 8 -9 20 -9 28 0 8 -6 15 -13 17 -7 1 -8 0 -2
-3 5 -2 10 -9 10 -15 0 -6 -7 -5 -16 3 -14 12 -14 14 1 25 12 9 13 13 3 16
-11 4 -11 8 0 20 9 11 10 18 2 23 -13 8 -13 25 1 25 5 0 8 -4 5 -9 -3 -5 0
-11 7 -14 7 -3 13 3 13 13 0 10 -3 18 -6 18 -23 -2 -30 5 -28 31 1 16 -4 37
-12 47 -9 11 -10 15 -2 10 8 -5 12 -1 12 13 0 10 6 22 13 24 9 4 9 6 0 6 -7 1
-13 8 -13 17 0 8 3 13 8 11 4 -3 7 9 7 26 -1 18 3 35 8 38 5 3 2 9 -7 12 -9 4
-15 1 -13 -5 1 -6 -5 -13 -13 -15 -9 -3 -11 -1 -5 4 16 12 11 39 -5 35 -12 -3
-11 0 1 15 9 10 15 30 14 45 -1 15 2 25 7 22 5 -4 8 4 6 17 -2 15 2 23 10 22
20 -5 14 14 -7 20 -14 3 -18 1 -14 -9 3 -8 0 -14 -7 -14 -6 0 -9 4 -5 9 3 5 1
12 -5 16 -13 8 -13 42 -1 50 5 3 13 0 17 -6 4 -8 3 -9 -4 -5 -8 4 -12 0 -12
-12 0 -10 6 -19 14 -19 8 0 12 6 9 14 -4 9 0 11 13 7 18 -5 18 -5 2 6 -21 13
-24 36 -6 42 7 3 5 7 -6 11 -9 4 -15 3 -11 -2 3 -5 1 -12 -4 -15 -18 -11 -4
27 15 41 19 14 19 14 -1 11 -11 -2 -26 -10 -33 -18 -11 -13 -11 -11 -2 8 6 12
15 20 21 17 5 -4 9 1 9 10 0 10 -5 13 -12 9 -7 -4 -10 -4 -6 1 4 4 2 15 -5 23
-10 13 -9 14 10 4 20 -11 21 -10 17 14 -3 16 -1 23 6 19 6 -4 7 0 3 10 -4 13
-7 14 -14 3 -7 -11 -10 -10 -21 1 -7 8 -8 11 -2 8 7 -4 14 0 17 7 3 8 1 17 -6
19 -7 2 -9 8 -5 12 4 4 16 2 25 -6 17 -13 17 -13 0 7 -9 11 -14 24 -10 27 3 4
1 7 -6 7 -7 0 -9 5 -6 10 4 6 12 7 18 4 7 -4 1 3 -11 16 -17 16 -21 25 -13 33
7 7 7 15 -1 24 -6 8 -7 13 -2 12 21 -4 28 2 14 11 -13 8 -13 10 -1 10 11 0 10
4 -5 16 -16 13 -16 15 -2 10 10 -3 20 -1 23 5 4 5 1 8 -6 7 -7 -2 -14 11 -16
31 -2 18 0 31 4 28 5 -3 10 4 10 16 2 15 0 18 -6 8 -6 -9 -10 -5 -13 13 -4 19
-2 23 6 17 8 -7 11 0 12 24 0 19 -3 32 -7 30 -4 -3 -9 8 -11 25 -2 16 -1 27 3
25 4 -3 10 2 13 11 3 8 2 12 -3 9 -5 -3 -12 -1 -15 4 -3 5 2 12 12 16 16 7 15
8 -3 15 -19 8 -19 9 -1 9 20 1 20 1 0 17 -19 15 -19 16 0 9 20 -6 20 -6 0 16
-10 12 -14 20 -9 17 10 -6 10 78 5 577 -2 123 -6 195 -14 204 -8 11 -8 13 1 8
8 -5 7 3 -3 22 -12 25 -19 28 -52 26 -20 -1 -43 2 -51 9 -11 8 -13 8 -8 0 8
-14 -51 -13 -73 1 -8 5 -11 4 -6 -3 6 -10 -32 -10 -80 -1 -5 1 -11 0 -14 -1
-3 -2 -189 -4 -415 -6 -225 -1 -412 -3 -415 -4 -3 -1 -36 -1 -75 0 -38 1 -343
3 -676 4 -334 2 -612 6 -618 10 -6 4 -11 2 -11 -5 0 -8 -4 -8 -13 -1 -7 6 -18
7 -27 2 -7 -4 -23 -5 -34 -1 -25 9 -37 8 -53 -2 -7 -5 -13 -5 -13 0 0 12 -294
11 -302 -2 -5 -7 -8 -7 -8 0 0 7 -89 11 -251 13 -138 1 -255 5 -260 8 -5 3 -9
1 -9 -4 0 -5 -17 -6 -40 -2 -22 4 -40 4 -40 0 0 -5 -8 -6 -17 -4 -33 8 -183 9
-183 2 0 -4 -10 -4 -22 0 -13 4 -72 7 -133 7 -66 -1 -113 3 -117 10 -5 6 -8 6
-8 0 0 -10 -87 -14 -105 -4 -10 5 -31 4 -70 -4 -11 -3 -25 -1 -31 4 -6 5 -14
6 -18 2z m4274 -1063 c0 -5 -2 -10 -4 -10 -3 0 -8 5 -11 10 -3 6 -1 10 4 10 6
0 11 -4 11 -10z m-13 -675 c0 -8 -4 -12 -9 -9 -5 3 -6 10 -3 15 9 13 12 11 12
-6z m22 -147 c-17 -33 -21 -36 -17 -13 2 17 16 34 26 35 1 0 -3 -10 -9 -22z
m-4 -218 c3 -5 1 -10 -4 -10 -6 0 -11 5 -11 10 0 6 2 10 4 10 3 0 8 -4 11 -10z
m18 -113 c-5 -8 -8 -7 -11 1 -2 7 -9 9 -14 6 -7 -4 -8 -2 -4 4 4 6 13 9 21 6
8 -4 12 -11 8 -17z m-18 -47 c3 -5 1 -10 -4 -10 -6 0 -11 5 -11 10 0 6 2 10 4
10 3 0 8 -4 11 -10z m0 -29 c3 -5 2 -12 -3 -15 -5 -3 -9 1 -9 9 0 17 3 19 12
6z m25 -25 c0 -2 -7 -7 -16 -10 -8 -3 -12 -2 -9 4 6 10 25 14 25 6z m6 -57
c-1 -18 -7 -34 -14 -37 -14 -4 -16 14 -2 23 7 4 7 12 0 24 -5 10 -7 21 -3 24
12 12 20 -3 19 -34z m-31 2 c3 -5 2 -12 -3 -15 -5 -3 -9 1 -9 9 0 17 3 19 12
6z m30 -91 c1 -15 -1 -17 -11 -9 -7 6 -12 19 -11 30 2 24 20 7 22 -21z m-25
-20 c0 -5 -2 -10 -4 -10 -3 0 -8 5 -11 10 -3 6 -1 10 4 10 6 0 11 -4 11 -10z
m-10 -476 c0 -8 -19 -13 -24 -6 -3 5 1 9 9 9 8 0 15 -2 15 -3z m6 -610 c1 -9
0 -13 -4 -10 -3 4 -7 14 -8 22 -1 9 0 13 4 10 3 -4 7 -14 8 -22z m56 -2 c-7
-2 -9 -9 -5 -15 5 -8 2 -8 -9 0 -8 7 -19 9 -23 5 -5 -4 -5 -1 -1 6 4 7 12 10
17 7 5 -4 9 -1 9 5 0 6 5 8 12 4 9 -6 9 -9 0 -12z m-32 -212 c0 -5 -5 -10 -11
-10 -5 0 -7 5 -4 10 3 6 8 10 11 10 2 0 4 -4 4 -10z m28 -143 c14 4 14 3 3 -5
-17 -12 -43 -4 -34 11 5 8 8 8 10 0 3 -7 12 -9 21 -6z m-18 -79 c0 -4 -4 -8
-9 -8 -6 0 -12 4 -15 8 -3 5 1 9 9 9 8 0 15 -4 15 -9z m39 -67 c2 -1 -1 -7 -6
-13 -6 -7 -9 -23 -8 -36 l2 -22 -19 20 c-11 11 -24 17 -30 14 -7 -4 -8 -2 -4
4 4 6 13 9 22 5 16 -6 16 17 -1 30 -8 6 8 5 44 -2z m-71 -316 c-3 -3 -9 2 -12
12 -6 14 -5 15 5 6 7 -7 10 -15 7 -18z m-4358 -17 c24 0 23 -1 -7 -16 -18 -9
-33 -19 -33 -24 0 -5 9 -4 21 2 11 7 23 9 27 6 3 -3 0 -6 -7 -6 -7 0 -9 -4 -6
-10 3 -5 0 -7 -8 -4 -8 3 -14 -2 -14 -11 0 -9 6 -14 13 -11 13 5 13 -19 -1
-31 -4 -4 -5 -2 -1 5 4 7 1 12 -8 12 -9 0 -16 5 -16 10 0 34 -19 63 -36 56 -8
-3 -14 -4 -14 -2 0 3 -3 11 -6 19 -4 12 2 14 33 10 21 -2 49 -4 63 -5z m4351
-111 c-10 -9 -11 -8 -5 6 3 10 9 15 12 12 3 -3 0 -11 -7 -18z m57 -44 c-8 -10
-9 -17 -1 -21 7 -4 1 -14 -16 -26 l-26 -20 20 24 c19 22 19 23 1 16 -16 -5
-17 -4 -6 9 10 12 10 15 -1 15 -11 0 -11 2 -1 8 7 5 19 9 27 9 12 0 12 -3 3
-14z m-4385 -4 c-13 -13 -6 -39 9 -39 6 0 7 8 3 18 -5 14 -4 15 7 4 11 -11 10
-16 -6 -27 -10 -8 -23 -12 -29 -8 -6 3 -7 1 -4 -5 8 -12 25 -11 46 2 8 5 12 5
9 0 -3 -5 0 -14 7 -21 11 -10 14 -10 18 0 2 7 8 8 13 3 5 -5 4 -11 -4 -13 -6
-3 -9 -10 -5 -16 3 -7 -3 -3 -15 7 -12 11 -22 16 -22 11 0 -4 -7 -2 -15 5 -10
8 -15 9 -15 2 0 -6 -6 -9 -14 -6 -9 3 -13 14 -9 27 2 12 5 29 5 37 1 8 6 18
12 22 17 11 21 9 9 -3z m42 1 c3 -6 -1 -7 -9 -4 -18 7 -21 14 -7 14 6 0 13 -4
16 -10z m4286 -33 c-10 -9 -11 -8 -5 6 3 10 9 15 12 12 3 -3 0 -11 -7 -18z
m-4274 -9 c2 -17 0 -19 -7 -8 -5 8 -6 18 -4 22 8 12 10 10 11 -14z m78 3 c3
-5 2 -12 -3 -15 -5 -3 -9 1 -9 9 0 17 3 19 12 6z m5 -43 c0 -7 -9 -10 -26 -7
-4 0 -10 -5 -14 -11 -5 -9 -9 -9 -14 -1 -4 6 -2 11 4 11 6 0 9 4 6 8 -2 4 6 8
20 8 13 0 24 -4 24 -8z m38 -13 c-3 -3 -9 2 -12 12 -6 14 -5 15 5 6 7 -7 10
-15 7 -18z m52 21 c0 -2 -8 -10 -17 -17 -16 -13 -17 -12 -4 4 13 16 21 21 21
13z m64 -4 c3 -5 -1 -9 -9 -9 -8 0 -12 4 -9 9 3 4 7 8 9 8 2 0 6 -4 9 -8z
m299 -17 c-3 -9 -8 -14 -10 -11 -3 3 -2 9 2 15 9 16 15 13 8 -4z m-228 -17
c-1 -12 -7 -24 -13 -26 -15 -5 -15 3 -2 29 14 25 17 24 15 -3z m191 5 c-2 -9
-8 -18 -15 -19 -6 -1 -7 0 -2 2 6 3 7 12 4 20 -3 8 -1 14 5 14 6 0 9 -8 8 -17z
m158 -5 c-5 -8 -1 -9 12 -4 10 4 15 4 11 0 -4 -4 -1 -14 6 -23 10 -12 7 -12
-12 2 -23 15 -41 55 -20 41 5 -3 6 -10 3 -16z m-418 -4 c-5 -14 -4 -15 8 -5
15 12 23 6 22 -16 -1 -13 -10 -15 -33 -6 -13 5 -13 43 0 43 5 0 6 -7 3 -16z
m354 1 c-14 -17 -30 -20 -30 -4 0 5 4 8 9 4 5 -3 12 -1 16 5 3 5 9 10 12 10 3
0 0 -7 -7 -15z m445 6 c3 -5 2 -12 -3 -15 -5 -3 -9 1 -9 9 0 17 3 19 12 6z
m-623 -13 c5 -14 -33 -49 -45 -41 -4 3 -3 11 4 19 6 7 16 11 22 7 6 -4 8 0 4
10 -3 10 -2 17 2 17 5 0 11 -6 13 -12z m484 -14 c1 -9 0 -13 -4 -10 -3 4 -7
14 -8 22 -1 9 0 13 4 10 3 -4 7 -14 8 -22z m38 18 c3 -5 -1 -9 -9 -9 -8 0 -12
4 -9 9 3 4 7 8 9 8 2 0 6 -4 9 -8z m226 4 c0 -3 -4 -8 -10 -11 -5 -3 -10 -1
-10 4 0 6 5 11 10 11 6 0 10 -2 10 -4z m-305 -15 c3 -5 2 -12 -3 -15 -5 -3 -9
1 -9 9 0 17 3 19 12 6z m-728 -18 c0 -7 -4 -13 -8 -13 -4 0 -9 6 -12 13 -3 8
0 14 7 14 7 0 13 -6 13 -14z m293 -13 c0 -5 -4 -10 -10 -10 -5 0 -10 5 -10 10
0 6 5 10 10 10 6 0 10 -4 10 -10z m763 -7 c-4 -11 -3 -14 5 -9 19 12 14 1 -11
-22 -22 -21 -24 -21 -22 -3 1 17 22 51 31 51 2 0 0 -7 -3 -17z m155 -2 c11 -7
11 -9 -2 -14 -9 -4 -16 -12 -16 -18 0 -8 4 -8 13 -2 22 18 47 12 43 -11 -2
-12 -7 -20 -12 -18 -5 2 -8 10 -6 18 2 8 -2 14 -8 14 -5 0 -10 -8 -10 -17 0
-16 -1 -16 -17 -1 -13 14 -14 20 -4 32 9 11 9 15 -1 19 -7 3 -8 6 -3 6 6 0 16
-3 23 -8z m73 -14 c-8 -8 -14 -7 -23 2 -11 10 -9 11 6 5 15 -6 17 -4 11 6 -6
9 -4 11 4 5 9 -5 10 -10 2 -18z m-176 3 c3 -5 2 -10 -4 -10 -5 0 -13 5 -16 10
-3 6 -2 10 4 10 5 0 13 -4 16 -10z m228 -7 c-3 -7 -6 -13 -8 -13 -2 0 -5 6 -8
13 -3 8 1 14 8 14 7 0 11 -6 8 -14z m57 13 c0 -3 -4 -8 -10 -11 -5 -3 -10 -1
-10 4 0 6 5 11 10 11 6 0 10 -2 10 -4z m317 -11 c0 -8 -4 -12 -9 -9 -5 3 -6
10 -3 15 9 13 12 11 12 -6z m-140 -16 c2 -16 -1 -19 -9 -11 -5 5 -7 15 -4 21
10 15 12 14 13 -10z m291 5 c-13 -13 -20 -14 -34 -5 -17 11 -17 11 3 6 12 -3
24 -1 28 5 3 5 9 10 13 10 3 0 -1 -7 -10 -16z m-1082 -9 c22 -18 3 -25 -27
-10 -16 9 -29 17 -29 19 0 8 46 0 56 -9z m534 8 c0 -14 -15 -29 -27 -28 -7 0
-12 4 -10 10 1 5 8 8 16 7 7 -2 10 1 6 7 -3 6 -1 11 4 11 6 0 11 -3 11 -7z
m440 -3 c0 -5 -5 -10 -11 -10 -5 0 -7 5 -4 10 3 6 8 10 11 10 2 0 4 -4 4 -10z
m53 -10 c10 -12 9 -12 -4 -2 -9 6 -18 9 -21 6 -3 -3 -9 -1 -12 4 -9 15 22 8
37 -8z m171 8 c-4 -5 -9 -7 -12 -4 -3 3 -12 0 -21 -7 -14 -10 -14 -10 -4 4 13
16 46 23 37 7z m33 -3 c0 -8 -4 -12 -9 -9 -5 3 -6 10 -3 15 9 13 12 11 12 -6z
m-1076 -10 c1 -16 -17 -17 -30 -2 -9 12 -7 14 9 13 11 0 21 -5 21 -11z m741 1
c7 4 8 2 4 -5 -9 -13 -26 -5 -25 12 0 9 2 8 6 -1 2 -6 10 -9 15 -6z m555 -23
c1 -24 0 -25 -6 -8 -7 17 -6 35 2 35 2 0 3 -12 4 -27z m153 23 c0 -2 -8 -10
-17 -17 -16 -13 -17 -12 -4 4 13 16 21 21 21 13z m1740 -2 c0 -8 -19 -13 -24
-6 -3 5 1 9 9 9 8 0 15 -2 15 -3z m-1509 -21 c13 -16 12 -17 -3 -4 -17 13 -22
21 -14 21 2 0 10 -8 17 -17z m954 8 c3 -5 2 -12 -3 -15 -5 -3 -9 1 -9 9 0 17
3 19 12 6z m-1360 -19 c-3 -3 -11 0 -18 7 -9 10 -8 11 6 5 10 -3 15 -9 12 -12z
m261 1 c-1 -7 -6 -16 -11 -20 -4 -4 -5 -3 -1 4 3 6 -2 16 -11 22 -16 9 -16 10
3 8 12 0 21 -7 20 -14z m117 -3 c10 -12 9 -12 -3 -3 -8 6 -23 9 -33 8 -9 -2
-15 0 -12 5 7 12 33 6 48 -10z m-406 -6 c-3 -3 -12 -4 -19 -1 -8 3 -5 6 6 6
11 1 17 -2 13 -5z m1912 -12 c7 -13 6 -19 -2 -19 -7 0 -13 9 -13 19 0 10 1 18
3 18 1 0 7 -8 12 -18z m-2464 -12 c-10 -11 -21 -17 -24 -14 -3 3 3 12 13 20
28 20 32 17 11 -6z m980 11 c-3 -6 3 -15 12 -21 17 -11 17 -11 1 -6 -20 6 -22
-2 -8 -24 6 -10 10 -11 10 -2 0 6 7 12 15 12 20 0 19 17 -2 29 -11 6 -13 11
-5 11 7 0 21 -13 30 -30 9 -16 21 -30 25 -30 5 0 5 5 2 10 -3 6 -2 10 3 10 6
0 13 -7 16 -16 3 -8 10 -13 15 -9 5 3 13 0 17 -7 4 -7 4 -10 -1 -6 -4 4 -14 3
-22 -3 -10 -9 -17 -8 -28 1 -8 7 -15 9 -15 5 0 -5 -8 -1 -18 9 -18 15 -20 15
-37 -4 l-18 -20 -15 21 c-8 12 -21 18 -31 15 -12 -5 -11 -2 3 9 11 8 15 15 9
15 -6 0 -14 8 -17 17 -5 13 0 11 20 -7 18 -17 25 -20 21 -9 -3 9 0 22 6 28 13
13 20 14 12 2z m-489 -29 c-17 -16 -18 -16 -5 5 7 12 15 20 18 17 3 -2 -3 -12
-13 -22z m48 12 c8 -22 8 -24 -6 -24 -6 0 -8 3 -5 7 4 3 2 12 -4 20 -7 8 -8
13 -1 13 5 0 13 -7 16 -16z m56 5 c0 -4 -5 -11 -10 -14 -6 -4 -8 -11 -5 -16
11 -16 -7 -9 -21 9 -19 25 -17 30 11 30 14 0 25 -4 25 -9z m457 -11 c-3 -8 -6
-5 -6 6 -1 11 2 17 5 13 3 -3 4 -12 1 -19z m257 10 c-3 -4 -9 -8 -15 -8 -5 0
-9 4 -9 8 0 5 7 9 15 9 8 0 12 -4 9 -9z m53 -3 c0 -8 -4 -12 -9 -9 -5 3 -6 10
-3 15 9 13 12 11 12 -6z m168 5 c3 -6 -1 -7 -9 -4 -18 7 -21 14 -7 14 6 0 13
-4 16 -10z m30 1 c3 -5 2 -12 -3 -15 -5 -3 -9 1 -9 9 0 17 3 19 12 6z m216
-33 c-11 -11 -13 -10 -7 0 4 7 2 21 -5 30 -12 15 -11 15 6 0 16 -15 17 -20 6
-30z m59 38 c0 -2 -8 -10 -17 -17 -16 -13 -17 -12 -4 4 13 16 21 21 21 13z
m175 -6 c-3 -5 -12 -10 -18 -10 -7 0 -6 4 3 10 19 12 23 12 15 0z m-920 -10
c-3 -5 -12 -10 -18 -10 -7 0 -6 4 3 10 19 12 23 12 15 0z m366 -13 c-8 -8 -14
-7 -23 2 -11 10 -9 11 6 5 15 -6 17 -4 11 6 -6 9 -4 11 4 5 9 -5 10 -10 2 -18z
m885 11 c-3 -19 -25 -55 -26 -42 0 6 3 14 8 18 4 4 8 12 8 17 2 15 4 19 8 19
2 0 3 -6 2 -12z m-2071 -15 c3 -10 -1 -13 -12 -11 -9 2 -18 8 -20 14 -5 16 25
13 32 -3z m2115 13 c0 -2 -7 -7 -16 -10 -8 -3 -12 -2 -9 4 6 10 25 14 25 6z
m-745 -27 c-4 -5 -12 -9 -18 -8 -9 0 -8 2 1 6 6 2 9 10 6 15 -4 7 -2 8 5 4 6
-4 9 -12 6 -17z m38 -4 c-7 -21 -12 -19 -10 4 0 11 5 18 9 15 4 -3 5 -11 1
-19z m200 12 c4 3 7 1 7 -5 0 -17 -16 -15 -31 6 -12 15 -12 16 2 5 9 -7 19
-10 22 -6z m41 -2 c-4 -8 -11 -15 -16 -15 -6 0 -5 6 2 15 7 8 14 15 16 15 2 0
1 -7 -2 -15z m-1114 -10 c0 -2 -6 -5 -13 -8 -8 -3 -14 1 -14 8 0 7 6 11 14 8
7 -3 13 -6 13 -8z m923 -5 c3 -11 3 -20 1 -20 -2 0 -8 9 -14 20 -6 11 -7 20
-2 20 6 0 12 -9 15 -20z m91 5 c-4 -8 -8 -15 -10 -15 -2 0 -4 7 -4 15 0 8 4
15 10 15 5 0 7 -7 4 -15z m257 -18 c-5 -5 -17 -7 -27 -4 -16 4 -15 5 3 6 17 1
21 6 17 19 -5 14 -4 15 5 2 5 -8 6 -19 2 -23z m68 -1 c-3 -3 -11 5 -18 17 -13
21 -12 21 5 5 10 -10 16 -20 13 -22z m71 19 c19 -22 8 -25 -12 -3 -10 10 -14
18 -9 18 5 0 14 -7 21 -15z m210 7 c0 -4 -9 -8 -20 -9 -11 -1 -20 2 -20 5 0 4
9 8 20 9 11 1 20 -2 20 -5z m-837 -15 c-16 -9 -19 -16 -13 -28 6 -11 5 -16 -4
-16 -7 0 -12 9 -11 19 1 20 21 38 40 37 6 0 0 -5 -12 -12z m-414 -18 c-7 -4
-17 -5 -22 -2 -5 3 -3 9 4 14 7 4 17 5 22 2 5 -3 3 -9 -4 -14z m1034 -27 c-3
-11 3 -9 16 7 12 12 19 26 17 30 -3 4 5 8 17 8 20 2 20 1 5 -8 -10 -6 -18 -15
-18 -21 0 -7 4 -7 13 -1 16 13 59 14 51 2 -3 -5 -15 -7 -27 -4 -20 5 -19 4 3
-10 14 -9 17 -14 8 -11 -10 3 -21 -2 -26 -11 -7 -11 -15 -14 -28 -8 -27 12
-38 12 -47 0 -5 -6 -6 -2 -3 10 6 20 6 20 -9 1 -8 -11 -15 -16 -16 -10 0 5 -2
18 -4 28 -2 11 4 25 13 32 14 11 19 10 29 -2 6 -9 9 -23 6 -32z m-923 22 c0
-8 -19 -13 -24 -6 -3 5 1 9 9 9 8 0 15 -2 15 -3z m378 -26 c-2 -5 -8 -9 -13
-9 -5 0 -11 4 -13 9 -1 5 4 9 13 9 9 0 14 -4 13 -9z m50 3 c10 -6 9 -11 -5
-22 -10 -7 -15 -9 -11 -5 4 5 0 15 -10 22 -14 11 -14 13 -2 14 8 0 21 -4 28
-9z m267 -29 c-3 -3 -11 0 -18 7 -9 10 -8 11 6 5 10 -3 15 -9 12 -12z m40 8
c3 -5 1 -10 -4 -10 -6 0 -11 5 -11 10 0 6 2 10 4 10 3 0 8 -4 11 -10z m290
-10 c3 -5 1 -10 -4 -10 -6 0 -11 5 -11 10 0 6 2 10 4 10 3 0 8 -4 11 -10z"/>
<path d="M645 947 c10 -8 25 -12 33 -10 17 7 10 13 -24 19 -27 5 -28 4 -9 -9z"/>
<path d="M1035 671 c-3 -5 -2 -12 3 -15 5 -3 9 1 9 9 0 17 -3 19 -12 6z"/>
<path d="M3501 473 c6 -7 17 -13 23 -12 7 0 6 2 -2 6 -6 2 -10 8 -8 12 3 4 -1
8 -9 8 -11 0 -12 -4 -4 -14z"/>
<path d="M3570 481 c0 -6 4 -13 10 -16 6 -3 7 1 4 9 -7 18 -14 21 -14 7z"/>
<path d="M3106 508 c3 -5 10 -6 15 -3 13 9 11 12 -6 12 -8 0 -12 -4 -9 -9z"/>
<path d="M4723 448 c-4 -7 -8 -20 -10 -28 -1 -12 1 -11 11 2 7 10 16 15 20 11
4 -4 4 0 0 10 -7 20 -10 21 -21 5z"/>
<path d="M4775 422 c-2 -3 -2 -8 1 -13 5 -9 34 -1 34 10 0 8 -27 10 -35 3z"/>
<path d="M5063 4083 c4 -3 2 -12 -3 -18 -8 -9 -6 -14 4 -18 11 -4 13 -1 9 10
-5 12 -3 14 8 8 12 -8 12 -6 0 8 -7 9 -16 17 -19 17 -3 0 -2 -3 1 -7z"/>
<path d="M5065 3571 c-3 -5 -1 -12 5 -16 5 -3 10 1 10 9 0 18 -6 21 -15 7z"/>
<path d="M5076 3381 c-4 -6 -2 -11 4 -11 6 0 8 -4 5 -10 -3 -5 -1 -10 4 -10
13 0 14 10 2 29 -6 9 -11 10 -15 2z"/>
<path d="M5087 3333 c-10 -9 -9 -23 1 -23 5 0 9 7 9 15 0 17 -1 18 -10 8z"/>
<path d="M5092 3241 c-11 -7 -11 -9 0 -14 9 -3 15 1 15 9 0 8 -1 14 -1 14 -1
0 -7 -4 -14 -9z"/>
<path d="M5113 3085 c0 -8 4 -12 9 -9 5 3 6 10 3 15 -9 13 -12 11 -12 -6z"/>
<path d="M5115 3040 c-3 -5 -1 -10 4 -10 6 0 11 5 11 10 0 6 -2 10 -4 10 -3 0
-8 -4 -11 -10z"/>
<path d="M5110 2859 c0 -5 5 -7 10 -4 6 3 10 8 10 11 0 2 -4 4 -10 4 -5 0 -10
-5 -10 -11z"/>
<path d="M5110 2779 c0 -5 5 -7 10 -4 6 3 10 8 10 11 0 2 -4 4 -10 4 -5 0 -10
-5 -10 -11z"/>
<path d="M5110 2739 c0 -5 5 -7 10 -4 6 3 10 8 10 11 0 2 -4 4 -10 4 -5 0 -10
-5 -10 -11z"/>
<path d="M5113 2596 c1 -6 -6 -10 -16 -10 -14 2 -15 -1 -6 -12 6 -7 8 -18 4
-24 -3 -5 -1 -10 4 -10 6 0 11 8 11 17 0 9 7 24 15 33 13 14 13 17 1 17 -8 0
-14 -5 -13 -11z"/>
<path d="M5109 2388 c-6 -20 -3 -45 6 -42 13 5 17 44 4 44 -5 0 -9 -1 -10 -2z"/>
<path d="M5109 2148 c0 -2 -2 -22 -3 -45 -2 -38 0 -41 16 -32 14 8 16 14 8 29
-5 10 -7 26 -4 34 3 9 1 16 -5 16 -6 0 -11 -1 -12 -2z"/>
<path d="M5160 2080 c-9 -6 -10 -10 -3 -10 6 0 15 5 18 10 8 12 4 12 -15 0z"/>
<path d="M5112 2049 c-15 -6 -21 -13 -15 -21 4 -7 8 -49 8 -92 0 -53 4 -81 12
-83 7 -3 15 7 19 21 3 15 11 23 17 19 6 -3 7 -1 3 6 -9 15 -26 5 -26 -16 0 -9
-3 -13 -7 -9 -11 11 -10 30 0 37 6 4 6 13 1 20 -12 19 -14 39 -4 39 5 0 10 -6
13 -12 4 -12 2 0 -7 42 -2 8 -1 20 3 25 5 9 11 36 8 34 -1 0 -12 -4 -25 -10z
m18 -15 c0 -8 -19 -13 -24 -6 -3 5 1 9 9 9 8 0 15 -2 15 -3z"/>
<path d="M5135 1701 c-3 -6 -10 -9 -14 -7 -3 3 -7 -3 -7 -13 0 -10 6 -18 13
-18 7 0 9 5 6 10 -3 5 1 13 8 18 7 4 11 11 7 14 -3 4 -9 1 -13 -4z"/>
<path d="M5160 1486 c0 -2 8 -10 18 -17 15 -13 16 -12 3 4 -13 16 -21 21 -21
13z"/>
<path d="M5140 1322 c0 -5 7 -9 15 -9 8 0 12 4 9 9 -3 4 -9 8 -15 8 -5 0 -9
-4 -9 -8z"/>
<path d="M5135 1180 c-4 -6 -12 -7 -18 -4 -7 4 -9 4 -5 -1 4 -4 3 -14 -3 -21
-9 -11 -7 -15 6 -20 13 -6 14 -9 3 -16 -10 -8 -10 -9 2 -5 8 2 15 12 15 23 0
10 5 19 12 19 6 0 15 4 20 8 4 5 1 7 -7 5 -8 -1 -14 3 -12 10 3 15 -4 16 -13
2z m5 -14 c0 -2 -8 -10 -17 -17 -16 -13 -17 -12 -4 4 13 16 21 21 21 13z"/>
<path d="M5156 1127 c3 -10 9 -15 12 -12 3 3 0 11 -7 18 -10 9 -11 8 -5 -6z"/>
<path d="M5135 1100 c-4 -6 -12 -7 -18 -3 -7 4 -6 0 2 -10 7 -9 9 -17 4 -17
-5 0 -9 -9 -10 -20 -1 -11 3 -20 8 -20 6 0 7 -5 2 -12 -10 -17 -11 -88 -1 -82
4 3 8 -2 8 -10 0 -9 -4 -16 -8 -16 -5 0 -8 -15 -8 -34 0 -19 3 -33 5 -30 2 2
11 -2 20 -9 14 -10 14 -10 3 5 -10 13 -11 22 -2 39 8 14 8 19 1 15 -14 -9 -14
0 -1 25 6 10 7 19 2 19 -13 0 -11 30 2 30 6 0 3 5 -6 11 -10 5 -18 15 -18 21
0 9 3 9 12 0 7 -7 16 -12 22 -12 5 0 1 7 -10 16 -18 14 -18 15 6 9 24 -5 24
-5 5 7 -27 17 -30 39 -9 55 11 8 13 13 5 13 -7 0 -9 5 -6 10 3 6 4 10 1 10 -3
0 -8 -5 -11 -10z"/>
<path d="M5150 1060 c0 -5 5 -10 11 -10 5 0 7 5 4 10 -3 6 -8 10 -11 10 -2 0
-4 -4 -4 -10z"/>
<path d="M535 961 c-3 -5 -2 -12 3 -15 5 -3 9 1 9 9 0 17 -3 19 -12 6z"/>
<path d="M667 799 c6 -22 20 -26 20 -4 0 8 -6 16 -13 19 -7 3 -10 -2 -7 -15z"/>
<path d="M5150 800 c-13 -8 -12 -10 3 -10 9 0 17 5 17 10 0 12 -1 12 -20 0z"/>
<path d="M5140 719 c0 -5 5 -7 10 -4 6 3 10 8 10 11 0 2 -4 4 -10 4 -5 0 -10
-5 -10 -11z"/>
<path d="M5118 701 c11 -7 11 -9 -1 -14 -11 -4 -16 -43 -7 -54 2 -2 3 -7 4
-12 2 -19 12 -19 13 -1 1 11 -3 20 -8 20 -5 0 -4 6 3 14 7 8 18 11 23 8 6 -3
4 2 -4 11 -11 14 -11 17 0 17 11 0 11 2 -1 10 -8 5 -19 10 -25 10 -5 0 -4 -4
3 -9z"/>
<path d="M815 666 c-10 -7 -20 -21 -21 -31 -1 -9 1 -14 4 -10 4 4 7 12 7 18 0
7 10 11 23 9 12 -2 22 1 22 7 0 17 -16 21 -35 7z"/>
<path d="M945 660 c-3 -5 -1 -10 4 -10 6 0 11 5 11 10 0 6 -2 10 -4 10 -3 0
-8 -4 -11 -10z"/>
<path d="M1115 660 c-3 -5 1 -10 10 -10 9 0 13 5 10 10 -3 6 -8 10 -10 10 -2
0 -7 -4 -10 -10z"/>
<path d="M1227 639 c6 -23 32 -33 28 -11 -2 9 -4 20 -4 23 -1 3 -7 6 -15 6 -8
0 -11 -7 -9 -18z"/>
<path d="M1283 648 c-16 -20 -12 -44 10 -57 18 -12 18 -11 4 10 -12 16 -13 27
-6 41 11 21 6 24 -8 6z"/>
<path d="M950 636 c0 -2 7 -9 15 -16 13 -11 14 -10 9 4 -5 14 -24 23 -24 12z"/>
<path d="M835 620 c-3 -5 -1 -10 4 -10 6 0 11 5 11 10 0 6 -2 10 -4 10 -3 0
-8 -4 -11 -10z"/>
<path d="M1556 621 c-4 -6 -2 -11 4 -11 6 0 8 -4 5 -10 -3 -5 -1 -10 4 -10 13
0 14 10 2 29 -6 9 -11 10 -15 2z"/>
<path d="M1586 622 c-2 -4 -1 -14 3 -21 6 -10 10 -9 14 3 6 16 -8 32 -17 18z"/>
<path d="M1166 602 c-3 -5 1 -9 9 -9 8 0 15 4 15 9 0 4 -4 8 -9 8 -6 0 -12 -4
-15 -8z"/>
<path d="M1233 595 c0 -8 4 -12 9 -9 5 3 6 10 3 15 -9 13 -12 11 -12 -6z"/>
<path d="M1737 603 c-6 -9 30 -73 40 -73 3 0 -2 12 -12 26 -21 33 -15 40 13
14 11 -11 23 -16 27 -11 3 5 -4 12 -14 16 -11 3 -19 11 -17 18 1 7 1 8 -2 4
-2 -4 -10 -3 -17 3 -7 6 -16 7 -18 3z"/>
<path d="M1905 600 c-3 -5 1 -10 10 -10 9 0 13 5 10 10 -3 6 -8 10 -10 10 -2
0 -7 -4 -10 -10z"/>
<path d="M5140 606 c0 -2 8 -10 18 -17 15 -13 16 -12 3 4 -13 16 -21 21 -21
13z"/>
<path d="M1135 591 c-3 -5 -2 -12 3 -15 5 -3 9 1 9 9 0 17 -3 19 -12 6z"/>
<path d="M2017 572 c-15 -16 -27 -32 -27 -37 0 -5 7 1 16 13 18 26 39 28 53 5
6 -10 11 -12 11 -5 0 6 4 11 9 10 5 -2 9 0 10 5 1 4 -1 6 -3 5 -2 -2 -13 5
-23 14 -19 17 -21 17 -46 -10z m44 1 c13 -16 12 -17 -3 -4 -17 13 -22 21 -14
21 2 0 10 -8 17 -17z"/>
<path d="M1055 580 c3 -5 8 -10 11 -10 2 0 4 5 4 10 0 6 -5 10 -11 10 -5 0 -7
-4 -4 -10z"/>
<path d="M1995 580 c-4 -6 -10 -8 -15 -5 -4 3 -14 -3 -21 -12 -8 -9 -9 -14 -2
-10 6 4 13 3 15 -2 1 -5 11 2 21 15 10 13 16 24 13 24 -3 0 -8 -5 -11 -10z"/>
<path d="M5118 583 c7 -3 16 -2 19 1 4 3 -2 6 -13 5 -11 0 -14 -3 -6 -6z"/>
<path d="M1473 565 c0 -8 4 -12 9 -9 4 3 8 9 8 15 0 5 -4 9 -8 9 -5 0 -9 -7
-9 -15z"/>
<path d="M1507 567 c-3 -8 0 -14 7 -14 7 0 13 6 13 14 0 7 -4 13 -8 13 -4 0
-9 -6 -12 -13z"/>
<path d="M1548 573 c7 -3 16 -2 19 1 4 3 -2 6 -13 5 -11 0 -14 -3 -6 -6z"/>
<path d="M1576 563 c-6 -14 -5 -15 5 -6 7 7 10 15 7 18 -3 3 -9 -2 -12 -12z"/>
<path d="M1623 554 c-17 -14 -17 -15 2 -6 11 5 26 7 33 5 17 -6 15 4 -2 10 -8
3 -22 -1 -33 -9z"/>
<path d="M2688 560 c-1 -5 -13 -12 -26 -15 -12 -3 -31 -7 -42 -9 -11 -3 -20 0
-20 6 0 6 -3 8 -6 5 -4 -4 -2 -13 5 -21 9 -11 9 -15 -1 -18 -8 -3 -6 -7 6 -11
9 -4 15 -3 11 2 -3 5 -1 12 5 16 5 3 10 1 10 -4 0 -6 5 -11 11 -11 8 0 8 5 -1
15 -7 8 -9 15 -4 15 5 0 21 -14 35 -31 17 -21 26 -26 26 -16 0 9 -4 14 -9 11
-11 -7 -10 7 1 25 7 11 11 8 17 -10 4 -13 7 -28 5 -34 -1 -5 1 -7 5 -3 4 4 14
2 22 -5 12 -9 12 -6 -1 14 -16 25 -16 27 0 40 15 12 16 12 11 -2 -3 -9 -2 -22
4 -30 8 -11 9 -10 4 4 -3 9 -1 17 3 17 5 0 12 7 15 16 3 9 2 12 -5 9 -6 -4
-19 1 -30 11 -10 9 -19 14 -19 9 0 -4 -6 -2 -14 4 -9 8 -15 8 -18 1z m22 -20
c0 -5 5 -10 11 -10 5 0 7 5 3 12 -4 7 -3 8 5 4 9 -6 9 -11 0 -23 -11 -12 -14
-12 -21 1 -5 8 -15 13 -23 10 -8 -4 -12 -10 -9 -15 9 -15 -3 -10 -17 8 -8 9
-9 14 -4 11 6 -4 17 -3 25 3 20 12 30 11 30 -1z"/>
<path d="M5135 560 c3 -5 8 -10 11 -10 2 0 4 5 4 10 0 6 -5 10 -11 10 -5 0 -7
-4 -4 -10z"/>
<path d="M1933 543 c4 -3 1 -13 -6 -22 -11 -14 -10 -14 5 -2 16 12 16 31 1 31
-4 0 -3 -3 0 -7z"/>
<path d="M2015 541 c-3 -5 0 -13 6 -17 8 -5 9 -3 4 6 -6 10 -4 12 8 7 10 -3
17 -2 17 3 0 13 -27 13 -35 1z"/>
<path d="M5102 526 c-7 -16 -18 -23 -34 -22 -15 1 -31 -9 -44 -27 -13 -16 -24
-23 -27 -17 -3 6 -4 5 -3 -2 2 -7 8 -13 14 -13 5 0 14 -4 19 -9 4 -5 3 -7 -2
-3 -6 3 -17 2 -25 -3 -10 -6 -21 -3 -32 7 -14 12 -18 13 -18 3 0 -9 -8 -6 -23
9 -22 20 -25 20 -38 5 -11 -14 -10 -19 15 -37 l28 -20 -23 -19 c-13 -11 -17
-16 -9 -12 8 4 23 14 33 22 13 12 17 12 17 2 0 -9 5 -7 15 6 15 18 15 18 13 0
-4 -27 22 -33 29 -7 4 15 11 20 23 16 12 -4 24 2 34 17 14 20 14 23 -4 40 -24
22 -24 25 -5 25 8 0 12 -4 10 -8 -7 -11 20 -18 36 -9 7 5 10 12 6 17 -5 4 -12
2 -16 -6 -6 -10 -10 -9 -14 4 -4 9 -3 13 2 10 5 -3 12 -1 16 4 3 6 12 8 20 4
8 -3 15 0 15 7 0 6 -5 8 -11 4 -7 -4 -10 -1 -7 7 3 8 11 13 17 11 7 -1 10 2 6
8 -10 16 -21 12 -33 -14z m-45 -97 c-16 -26 -28 -24 -23 4 3 12 5 23 5 24 1 1
8 0 16 -3 11 -5 12 -10 2 -25z m-127 7 c6 -8 18 -12 27 -9 11 4 14 2 11 -8 -3
-8 -11 -14 -19 -15 -20 -1 -40 17 -32 29 4 6 0 8 -11 4 -10 -4 -15 -3 -11 3 9
14 21 12 35 -4z m77 -31 c-13 -28 -30 -34 -20 -7 5 14 21 31 30 32 0 0 -4 -11
-10 -25z"/>
<path d="M1655 531 c-3 -5 -2 -12 3 -15 5 -3 9 1 9 9 0 17 -3 19 -12 6z"/>
<path d="M1875 530 c-3 -6 1 -7 9 -4 18 7 21 14 7 14 -6 0 -13 -4 -16 -10z"/>
<path d="M2150 531 c0 -6 4 -13 10 -16 6 -3 7 1 4 9 -7 18 -14 21 -14 7z"/>
<path d="M3187 533 c-12 -12 -7 -19 12 -19 15 0 17 3 9 13 -12 15 -13 15 -21
6z"/>
<path d="M1956 513 c-6 -14 -5 -15 5 -6 7 7 10 15 7 18 -3 3 -9 -2 -12 -12z"/>
<path d="M2133 511 c0 -11 5 -18 9 -15 4 3 5 11 1 19 -7 21 -12 19 -10 -4z"/>
<path d="M2460 520 c0 -5 5 -10 10 -10 6 0 10 5 10 10 0 6 -4 10 -10 10 -5 0
-10 -4 -10 -10z"/>
<path d="M2053 505 c0 -8 4 -12 9 -9 5 3 6 10 3 15 -9 13 -12 11 -12 -6z"/>
<path d="M3249 503 c-12 -16 -12 -17 2 -6 9 7 20 9 24 5 5 -4 5 -1 1 6 -9 16
-11 15 -27 -5z"/>
<path d="M2240 500 c-12 -7 -10 -9 7 -7 12 0 19 5 17 9 -6 10 -6 10 -24 -2z"/>
<path d="M2355 501 c-3 -5 0 -13 6 -17 7 -4 9 -3 5 4 -3 5 0 13 6 15 9 4 10 6
1 6 -6 1 -14 -3 -18 -8z"/>
<path d="M2414 502 c3 -5 0 -13 -6 -15 -9 -4 -10 -6 -1 -6 17 -1 25 16 12 25
-7 4 -9 3 -5 -4z"/>
<path d="M2457 489 c7 -7 15 -10 18 -7 3 3 -2 9 -12 12 -14 6 -15 5 -6 -5z"/>
<path d="M3775 490 c-4 -6 -11 -8 -16 -5 -5 4 -9 1 -9 -4 0 -16 16 -13 30 4 7
8 10 15 7 15 -3 0 -9 -5 -12 -10z"/>
<path d="M2490 482 c0 -5 7 -9 15 -9 8 0 12 4 9 9 -3 4 -9 8 -15 8 -5 0 -9 -4
-9 -8z"/>
<path d="M2577 475 c-4 -8 -1 -17 6 -21 7 -4 9 -4 5 1 -4 4 -3 14 3 22 7 8 8
13 1 13 -5 0 -12 -7 -15 -15z"/>
<path d="M2630 482 c0 -4 9 -8 19 -8 11 0 17 4 15 8 -3 4 -12 8 -20 8 -8 0
-14 -4 -14 -8z"/>
<path d="M2950 482 c0 -5 12 -14 28 -21 l27 -13 -22 21 c-24 23 -33 26 -33 13z"/>
<path d="M3935 471 c-7 -12 12 -24 25 -16 11 7 4 25 -10 25 -5 0 -11 -4 -15
-9z"/>
<path d="M2834 455 c3 -23 12 -26 13 -5 1 11 -2 20 -7 20 -4 0 -7 -7 -6 -15z"/>
<path d="M3015 461 c-3 -5 0 -13 6 -17 8 -4 9 -3 5 4 -5 8 0 12 13 12 15 0 19
-5 15 -17 -5 -15 -4 -15 4 -3 6 8 8 18 6 22 -7 11 -42 10 -49 -1z"/>
<path d="M3096 457 c3 -10 9 -15 12 -12 3 3 0 11 -7 18 -10 9 -11 8 -5 -6z"/>
<path d="M5114 455 c-4 -8 -11 -12 -18 -8 -6 3 -8 2 -3 -2 4 -5 16 -9 27 -10
15 -1 17 2 9 11 -7 8 -6 14 3 17 10 4 10 6 0 6 -7 1 -15 -6 -18 -14z"/>
<path d="M4464 438 c-6 -9 -6 -9 27 -12 14 -2 31 -6 37 -10 6 -3 14 -1 18 5 4
7 3 9 -3 6 -6 -4 -16 0 -23 7 -12 15 -48 17 -56 4z"/>
<path d="M3279 438 c-5 -18 -6 -38 -1 -34 7 8 12 36 6 36 -2 0 -4 -1 -5 -2z"/>
<path d="M4405 410 c0 -15 4 -26 8 -23 4 3 15 -1 24 -9 10 -7 14 -8 10 -1 -4
6 -1 13 5 16 10 3 10 7 -1 21 -8 9 -16 14 -19 11 -3 -3 -10 -1 -16 5 -8 6 -12
1 -11 -20z m39 -12 c-3 -5 -12 -4 -20 3 -19 16 -18 18 6 12 11 -3 17 -9 14
-15z"/>
<path d="M3015 420 c3 -5 8 -10 11 -10 2 0 4 5 4 10 0 6 -5 10 -11 10 -5 0 -7
-4 -4 -10z"/>
<path d="M3428 423 c6 -2 9 -10 6 -15 -4 -7 -2 -8 5 -4 13 9 5 26 -12 25 -9 0
-8 -2 1 -6z"/>
<path d="M3493 415 c0 -8 4 -12 9 -9 5 3 6 10 3 15 -9 13 -12 11 -12 -6z"/>
<path d="M3550 420 c0 -5 5 -10 11 -10 5 0 7 5 4 10 -3 6 -8 10 -11 10 -2 0
-4 -4 -4 -10z"/>
<path d="M3750 423 c0 -6 8 -17 18 -24 16 -13 16 -13 2 6 -8 11 -16 22 -17 24
-2 2 -3 0 -3 -6z"/>
<path d="M3887 410 c3 -11 9 -20 15 -20 5 0 4 9 -2 20 -6 11 -12 20 -14 20 -2
0 -2 -9 1 -20z"/>
<path d="M5066 402 l-19 -27 24 22 c12 12 21 24 18 27 -2 2 -13 -8 -23 -22z"/>
<path d="M3588 413 c7 -3 16 -2 19 1 4 3 -2 6 -13 5 -11 0 -14 -3 -6 -6z"/>
<path d="M3095 401 c-3 -5 -2 -12 3 -15 5 -3 9 1 9 9 0 17 -3 19 -12 6z"/>
<path d="M3533 395 c0 -8 4 -12 9 -9 5 3 6 10 3 15 -9 13 -12 11 -12 -6z"/>
<path d="M3721 396 c-8 -10 -9 -16 -1 -21 6 -4 9 -1 8 7 -2 7 3 12 10 10 8 -1
11 2 7 8 -8 13 -10 13 -24 -4z"/>
<path d="M3799 408 c-5 -18 -6 -38 -1 -34 7 8 12 36 6 36 -2 0 -4 -1 -5 -2z"/>
<path d="M3990 388 c-10 -21 -10 -21 3 -5 16 19 32 24 21 5 -4 -7 -3 -8 5 -4
12 8 6 26 -9 26 -5 0 -14 -10 -20 -22z"/>
<path d="M5096 402 c-3 -4 4 -9 15 -9 23 -2 25 3 4 10 -8 4 -16 3 -19 -1z"/>
<path d="M3832 391 c-11 -7 -11 -9 0 -14 9 -3 15 1 15 9 0 8 -1 14 -1 14 -1 0
-7 -4 -14 -9z"/>
<path d="M4067 387 c-3 -7 3 -13 13 -13 10 0 16 6 13 13 -3 7 -9 13 -13 13 -4
0 -10 -6 -13 -13z"/>
<path d="M4370 391 c0 -5 5 -13 10 -16 6 -3 10 -2 10 4 0 5 -4 13 -10 16 -5 3
-10 2 -10 -4z"/>
<path d="M4350 381 c0 -6 4 -13 10 -16 6 -3 7 1 4 9 -7 18 -14 21 -14 7z"/>
<path d="M4306 363 c-6 -14 -5 -15 5 -6 7 7 10 15 7 18 -3 3 -9 -2 -12 -12z"/>
<path d="M4457 365 c-4 -8 -3 -16 1 -19 4 -3 9 4 9 15 2 23 -3 25 -10 4z"/>
<path d="M4760 371 c0 -6 4 -13 10 -16 6 -3 7 1 4 9 -7 18 -14 21 -14 7z"/>
<path d="M3330 366 c0 -2 7 -7 16 -10 8 -3 12 -2 9 4 -6 10 -25 14 -25 6z"/>
<path d="M4330 361 c0 -6 4 -13 10 -16 6 -3 7 1 4 9 -7 18 -14 21 -14 7z"/>
<path d="M4406 358 c3 -4 9 -8 15 -8 5 0 9 4 9 8 0 5 -7 9 -15 9 -8 0 -12 -4
-9 -9z"/>
<path d="M4671 348 c-13 -22 -13 -23 6 -5 11 9 23 14 28 10 4 -5 5 -2 1 5 -10
18 -19 15 -35 -10z"/>
<path d="M5030 361 c0 -6 4 -13 10 -16 6 -3 7 1 4 9 -7 18 -14 21 -14 7z"/>
<path d="M5056 358 c3 -4 11 -5 19 -1 21 7 19 12 -4 10 -11 0 -18 -5 -15 -9z"/>
<path d="M4948 343 c6 -2 18 -2 25 0 6 3 1 5 -13 5 -14 0 -19 -2 -12 -5z"/>
<path d="M4793 325 c0 -8 4 -12 9 -9 5 3 6 10 3 15 -9 13 -12 11 -12 -6z"/>
<path d="M4333 315 c0 -8 4 -12 9 -9 5 3 6 10 3 15 -9 13 -12 11 -12 -6z"/>
<path d="M4395 320 c-3 -5 -1 -10 4 -10 6 0 11 5 11 10 0 6 -2 10 -4 10 -3 0
-8 -4 -11 -10z"/>
</g>
</svg>
